<svg width="48" height="48" viewBox="0 0 48 48" fill="none" xmlns="http://www.w3.org/2000/svg">
<circle cx="24.1109" cy="37.199" r="5.98946" fill="#D0CFE0"/>
<path fill-rule="evenodd" clip-rule="evenodd" d="M21.8937 6.9955C21.9322 5.78281 22.9273 4.81152 24.1494 4.81152C25.3714 4.81152 26.3666 5.78281 26.405 6.9955H26.4062V10.4899H21.8926V7.08265C21.8926 7.07787 21.8926 7.07309 21.8926 7.0683C21.8926 7.06352 21.8926 7.05874 21.8926 7.05396V6.9955H21.8937Z" fill="#9A99AD"/>
<path fill-rule="evenodd" clip-rule="evenodd" d="M36.0898 30.7658V20.4507V20.3397H36.0893C36.0292 13.8363 30.6893 8.58264 24.1109 8.58264C17.5325 8.58264 12.1926 13.8363 12.1325 20.3397H12.132V20.4507V30.7658H11.0228C8.94008 30.7658 7.25168 32.4542 7.25168 34.537C7.25168 36.6197 8.94008 38.3081 11.0228 38.3081L12.132 38.3081H36.0898L36.9772 38.3081C39.0599 38.3081 40.7483 36.6197 40.7483 34.537C40.7483 32.4542 39.0599 30.7658 36.9772 30.7658H36.0898Z" fill="#FF9900"/>
<path d="M23.5563 11.0228C22.3765 11.0228 21.2082 11.2552 20.1182 11.7067C19.0282 12.1582 18.0378 12.82 17.2035 13.6542C16.3693 14.4885 15.7075 15.4789 15.256 16.5689C14.8045 17.6589 14.5721 18.8272 14.5721 20.007H16.7854C16.7854 19.1179 16.9606 18.2374 17.3008 17.4159C17.6411 16.5944 18.1398 15.848 18.7686 15.2193C19.3973 14.5905 20.1437 14.0918 20.9652 13.7515C21.7867 13.4112 22.6672 13.2361 23.5563 13.2361V11.0228Z" fill="white"/>
<circle cx="15.6813" cy="19.8961" r="1.10916" fill="white"/>
<circle cx="23.4454" cy="12.132" r="1.10916" fill="white"/>
</svg>
