<svg width="660" height="660" viewBox="0 0 660 660" fill="none" xmlns="http://www.w3.org/2000/svg">
<circle cx="330" cy="330" r="330" fill="url(#paint0_radial_104_193)"/>
<mask id="mask0_104_193" style="mask-type:alpha" maskUnits="userSpaceOnUse" x="0" y="0" width="660" height="660">
<circle cx="330" cy="330" r="330" fill="#D9D9D9"/>
</mask>
<g mask="url(#mask0_104_193)">
<rect x="69.0647" y="92.5187" width="60" height="578.804" transform="rotate(-1.08 69.0647 92.5187)" fill="#FF9900"/>
</g>
<rect x="639.347" y="121.112" width="60" height="621.106" transform="rotate(88.92 639.347 121.112)" fill="#FF9900"/>
<path fill-rule="evenodd" clip-rule="evenodd" d="M154.377 227.549C154.169 216.505 162.953 207.383 173.996 207.175L618.443 198.797C629.486 198.588 638.608 207.372 638.816 218.416L644.057 496.413C644.265 507.457 635.481 516.578 624.437 516.787L179.991 525.165C168.947 525.373 159.826 516.59 159.618 505.546L154.377 227.549ZM198.265 239.156C198.395 246.058 192.905 251.759 186.003 251.89C179.101 252.02 173.4 246.53 173.27 239.627C173.14 232.725 178.629 227.024 185.532 226.894C192.434 226.764 198.135 232.254 198.265 239.156ZM604.69 243.808C611.593 243.678 617.083 237.977 616.952 231.075C616.822 224.172 611.121 218.682 604.219 218.812C597.317 218.943 591.827 224.643 591.957 231.546C592.087 238.448 597.788 243.938 604.69 243.808Z" fill="#FC5B51"/>
<path d="M256.759 286.176L301.931 285.324L302.155 297.202L271.11 297.788L271.39 312.635L298.295 312.128L298.502 323.106L271.597 323.613L272.098 350.158L257.97 350.425L256.759 286.176ZM365.382 324.095C365.546 332.794 363.239 339.319 358.46 343.669C353.68 347.96 347.001 350.187 338.422 350.348C329.724 350.512 322.936 348.54 318.057 344.431C313.239 340.321 310.747 333.887 310.582 325.129L309.829 285.176L323.956 284.909L324.71 324.862C324.742 326.602 324.925 328.309 325.256 329.983C325.588 331.657 326.246 333.145 327.231 334.446C328.214 335.688 329.554 336.713 331.249 337.521C333.004 338.268 335.321 338.615 338.2 338.56C343.239 338.465 346.698 337.29 348.576 335.034C350.452 332.718 351.345 329.161 351.255 324.362L350.502 284.409L364.629 284.143L365.382 324.095ZM376.796 283.913L390.924 283.647L391.911 336.018L423.225 335.427L423.449 347.305L378.007 348.162L376.796 283.913ZM430.136 282.908L444.264 282.641L445.251 335.012L476.565 334.422L476.789 346.3L431.347 347.156L430.136 282.908ZM490.845 321.01L466.53 282.222L482.367 281.923L497.873 307.015L512.332 281.358L528.079 281.061L504.98 321.104L505.444 345.759L491.317 346.026L490.845 321.01ZM227.623 422.759L241.931 422.49C244.45 422.442 246.508 421.803 248.105 420.573C249.703 419.343 250.476 417.378 250.425 414.678C250.397 413.179 250.103 411.954 249.545 411.004C248.987 410.055 248.253 409.318 247.343 408.795C246.433 408.272 245.377 407.932 244.174 407.775C243.029 407.556 241.827 407.459 240.567 407.483L227.34 407.732L227.623 422.759ZM213.005 397.02L243.24 396.45C246.299 396.393 249.094 396.61 251.624 397.103C254.153 397.595 256.33 398.454 258.153 399.68C259.976 400.846 261.386 402.44 262.384 404.461C263.443 406.481 264 408.991 264.057 411.991C264.118 415.23 263.419 417.944 261.96 420.132C260.561 422.319 258.434 424.129 255.581 425.563C259.562 426.628 262.539 428.582 264.513 431.426C266.546 434.208 267.6 437.609 267.676 441.628C267.737 444.867 267.16 447.699 265.946 450.122C264.73 452.485 263.056 454.437 260.925 455.978C258.854 457.517 256.445 458.673 253.699 459.445C251.013 460.215 248.23 460.628 245.351 460.682L214.217 461.269L213.005 397.02ZM228.137 450.025L243.254 449.74C244.634 449.714 245.952 449.569 247.207 449.305C248.461 448.981 249.562 448.511 250.511 447.893C251.458 447.215 252.192 446.331 252.711 445.241C253.291 444.15 253.565 442.764 253.533 441.084C253.471 437.785 252.497 435.463 250.611 434.118C248.724 432.714 246.251 432.04 243.192 432.098L227.805 432.388L228.137 450.025ZM288.312 428.007C288.363 430.706 288.712 433.34 289.361 435.908C290.068 438.415 291.131 440.676 292.549 442.689C293.968 444.703 295.798 446.319 298.042 447.537C300.284 448.695 302.995 449.244 306.174 449.184C309.354 449.124 312.042 448.473 314.239 447.231C316.435 445.93 318.203 444.246 319.545 442.18C320.886 440.115 321.833 437.816 322.385 435.286C322.996 432.694 323.277 430.048 323.226 427.348C323.173 424.529 322.791 421.806 322.081 419.178C321.432 416.55 320.398 414.229 318.98 412.216C317.56 410.142 315.73 408.526 313.487 407.368C311.244 406.15 308.533 405.571 305.353 405.631C302.174 405.691 299.486 406.372 297.29 407.674C295.093 408.915 293.325 410.599 291.984 412.725C290.643 414.79 289.667 417.149 289.057 419.801C288.507 422.452 288.259 425.187 288.312 428.007ZM274.184 428.273C274.094 423.474 274.73 419.021 276.093 414.915C277.455 410.748 279.456 407.11 282.098 403.999C284.74 400.889 287.994 398.427 291.861 396.614C295.787 394.8 300.21 393.846 305.129 393.753C310.108 393.66 314.564 394.446 318.496 396.112C322.428 397.778 325.773 400.116 328.53 403.124C331.287 406.133 333.425 409.693 334.942 413.805C336.459 417.857 337.263 422.283 337.353 427.082C337.441 431.761 336.804 436.154 335.441 440.26C334.077 444.307 332.074 447.855 329.431 450.906C326.788 453.956 323.533 456.388 319.667 458.201C315.799 459.954 311.376 460.878 306.396 460.972C301.477 461.064 297.022 460.308 293.031 458.703C289.099 457.037 285.755 454.729 282.999 451.781C280.243 448.832 278.107 445.362 276.592 441.37C275.075 437.318 274.273 432.952 274.184 428.273ZM358.348 426.686C358.399 429.386 358.749 432.02 359.397 434.588C360.105 437.095 361.168 439.355 362.586 441.369C364.004 443.383 365.835 444.998 368.078 446.216C370.32 447.374 373.031 447.923 376.211 447.863C379.39 447.803 382.078 447.153 384.275 445.911C386.471 444.609 388.24 442.926 389.581 440.86C390.922 438.794 391.869 436.496 392.422 433.965C393.033 431.373 393.313 428.728 393.262 426.028C393.209 423.209 392.828 420.485 392.118 417.858C391.468 415.23 390.434 412.909 389.016 410.895C387.597 408.822 385.766 407.206 383.524 406.048C381.28 404.83 378.569 404.251 375.39 404.311C372.21 404.371 369.522 405.052 367.327 406.353C365.13 407.595 363.361 409.279 362.021 411.404C360.68 413.47 359.704 415.829 359.094 418.481C358.544 421.132 358.295 423.867 358.348 426.686ZM344.221 426.953C344.13 422.153 344.766 417.701 346.129 413.594C347.491 409.428 349.493 405.789 352.135 402.679C354.777 399.569 358.031 397.107 361.897 395.294C365.824 393.479 370.247 392.526 375.166 392.433C380.145 392.339 384.6 393.125 388.532 394.792C392.465 396.458 395.809 398.795 398.566 401.804C401.324 404.812 403.461 408.373 404.979 412.485C406.496 416.537 407.299 420.963 407.39 425.762C407.478 430.441 406.84 434.834 405.478 438.94C404.114 442.987 402.11 446.535 399.467 449.585C396.824 452.636 393.569 455.067 389.703 456.881C385.835 458.634 381.412 459.557 376.433 459.651C371.514 459.744 367.059 458.988 363.068 457.383C359.136 455.717 355.792 453.409 353.035 450.461C350.279 447.512 348.144 444.042 346.628 440.05C345.111 435.997 344.309 431.632 344.221 426.953ZM416.436 393.185L430.563 392.919L431.066 419.554L455.669 392.446L473.306 392.113L448.679 417.962L476.947 456.316L459.22 456.65L439.329 428.13L431.385 436.471L431.775 457.168L417.647 457.434L416.436 393.185ZM481.376 391.961L529.427 391.055L529.651 402.933L495.727 403.573L495.987 417.34L527.121 416.753L527.328 427.731L496.194 428.318L496.49 444.066L531.134 443.412L531.358 455.29L482.587 456.21L481.376 391.961ZM554.839 442.966L567.437 442.728C569.477 442.69 571.45 442.322 573.357 441.626C575.265 440.93 576.954 439.818 578.425 438.29C579.896 436.702 581.058 434.67 581.911 432.193C582.765 429.717 583.158 426.709 583.091 423.17C583.03 419.93 582.645 417.027 581.937 414.46C581.287 411.832 580.225 409.601 578.75 407.769C577.275 405.936 575.329 404.563 572.912 403.648C570.553 402.672 567.634 402.217 564.154 402.283L554.076 402.473L554.839 442.966ZM539.725 390.861L567.44 390.339C571.579 390.261 575.431 390.848 578.995 392.101C582.619 393.353 585.746 395.275 588.375 397.865C591.065 400.455 593.166 403.716 594.681 407.648C596.255 411.579 597.093 416.214 597.193 421.553C597.282 426.233 596.763 430.563 595.638 434.545C594.513 438.527 592.748 441.981 590.342 444.907C587.997 447.831 585.011 450.168 581.383 451.917C577.814 453.604 573.57 454.495 568.651 454.587L540.936 455.11L539.725 390.861Z" fill="white"/>
<path d="M186.188 238.989L185 164.465" stroke="#28282B" stroke-width="18" stroke-linecap="round"/>
<path d="M604.188 229.524L603 155" stroke="#28282B" stroke-width="18" stroke-linecap="round"/>
<rect x="68.8511" y="81.1807" width="60" height="314.37" transform="rotate(-1.08 68.8511 81.1807)" fill="#FF9900"/>
<defs>
<radialGradient id="paint0_radial_104_193" cx="0" cy="0" r="1" gradientUnits="userSpaceOnUse" gradientTransform="translate(181 660) rotate(-60.6292) scale(598.418)">
<stop stop-color="#D6EC83"/>
<stop offset="1" stop-color="#FBFBFC"/>
</radialGradient>
</defs>
</svg>
