<svg width="24" height="25" viewBox="0 0 24 25" fill="none" xmlns="http://www.w3.org/2000/svg">
<g clip-path="url(#clip0_955_50521)">
<path d="M3 2.67969C2.58579 2.67969 2.25 3.01547 2.25 3.42969C2.25 3.8439 2.58579 4.17969 3 4.17969V2.67969ZM5 3.42969L5.74779 3.37217C5.71773 2.98142 5.3919 2.67969 5 2.67969V3.42969ZM21 6.42969L21.7454 6.51251C21.769 6.30048 21.7011 6.08846 21.5588 5.9295C21.4166 5.77054 21.2133 5.67969 21 5.67969V6.42969ZM5.23077 6.42969L4.48298 6.48721L5.23077 6.42969ZM18.8924 15.5088L18.9459 16.2569L18.8924 15.5088ZM20.1226 14.3261L19.3772 14.2433L20.1226 14.3261ZM7.3227 16.3352L7.37613 17.0833L7.3227 16.3352ZM3 4.17969H5V2.67969H3V4.17969ZM7.37613 17.0833L18.9459 16.2569L18.839 14.7607L7.26926 15.5871L7.37613 17.0833ZM20.868 14.4089L21.7454 6.51251L20.2546 6.34686L19.3772 14.2433L20.868 14.4089ZM4.25221 3.48721L4.48298 6.48721L5.97856 6.37217L5.74779 3.37217L4.25221 3.48721ZM4.48298 6.48721L5.1505 15.165L6.64609 15.05L5.97856 6.37217L4.48298 6.48721ZM21 5.67969H5.23077V7.17969H21V5.67969ZM18.9459 16.2569C19.9485 16.1853 20.757 15.408 20.868 14.4089L19.3772 14.2433C19.3461 14.523 19.1197 14.7407 18.839 14.7607L18.9459 16.2569ZM7.26926 15.5871C6.94916 15.61 6.6707 15.37 6.64609 15.05L5.1505 15.165C5.23841 16.3078 6.2329 17.165 7.37613 17.0833L7.26926 15.5871Z" fill="white"/>
<rect x="8.5" y="20.9297" width="0.0100002" height="0.0100002" stroke="white" stroke-width="1.5" stroke-linejoin="round"/>
<rect x="17.5" y="20.9297" width="0.0100002" height="0.0100002" stroke="white" stroke-width="1.5" stroke-linejoin="round"/>
</g>
<defs>
<clipPath id="clip0_955_50521">
<rect width="24" height="24" fill="white" transform="translate(0 0.429688)"/>
</clipPath>
</defs>
</svg>
