<svg width="16" height="16" viewBox="0 0 16 16" fill="none" xmlns="http://www.w3.org/2000/svg">
<path d="M2.66666 5.33325H13.3333M2.66666 5.33325V11.2C2.66666 11.9468 2.66666 12.32 2.81198 12.6052C2.93981 12.8561 3.14364 13.0602 3.39452 13.1881C3.67946 13.3333 4.05265 13.3333 4.79793 13.3333H11.2021C11.9473 13.3333 12.32 13.3333 12.6049 13.1881C12.8558 13.0602 13.0603 12.8561 13.1881 12.6052C13.3333 12.3202 13.3333 11.9476 13.3333 11.2023V5.33325M2.66666 5.33325V4.80005C2.66666 4.05331 2.66666 3.67967 2.81198 3.39445C2.93981 3.14357 3.14364 2.93974 3.39452 2.81191C3.67974 2.66659 4.05338 2.66659 4.80012 2.66659H5.33332M13.3333 5.33325V4.79786C13.3333 4.05258 13.3333 3.67939 13.1881 3.39445C13.0603 3.14357 12.8558 2.93974 12.6049 2.81191C12.3197 2.66659 11.9469 2.66659 11.2001 2.66659H10.6667M10.6667 1.33325V2.66659M10.6667 2.66659H5.33332M5.33332 1.33325V2.66659" stroke="black" stroke-width="1.5" stroke-linecap="round" stroke-linejoin="round"/>
</svg>
