<svg width="32" height="33" viewBox="0 0 32 33" fill="none" xmlns="http://www.w3.org/2000/svg">
<path d="M5.33334 11.3734H26.6667M5.33334 11.3734V23.107C5.33334 24.6005 5.33334 25.3468 5.62399 25.9172C5.87966 26.419 6.28731 26.8274 6.78907 27.083C7.35895 27.3734 8.10534 27.3734 9.59589 27.3734H22.4048C23.8953 27.3734 24.6406 27.3734 25.2105 27.083C25.7123 26.8274 26.1207 26.419 26.3763 25.9172C26.6667 25.3474 26.6667 24.6021 26.6667 23.1115V11.3734M5.33334 11.3734V10.307C5.33334 8.81352 5.33334 8.06623 5.62399 7.49579C5.87966 6.99403 6.28731 6.58638 6.78907 6.33071C7.3595 6.04006 8.1068 6.04006 9.60027 6.04006H10.6667M26.6667 11.3734V10.3026C26.6667 8.81206 26.6667 8.06567 26.3763 7.49579C26.1207 6.99403 25.7123 6.58638 25.2105 6.33071C24.6401 6.04006 23.8937 6.04006 22.4003 6.04006H21.3333M10.6667 6.04006H21.3333M10.6667 6.04006V3.3734M21.3333 6.04006V3.3734M19.3333 19.3734H16M16 19.3734H12.6667M16 19.3734V16.0401M16 19.3734V22.7067" stroke="white" stroke-width="1.5" stroke-linecap="round" stroke-linejoin="round"/>
</svg>
