<?xml version="1.0" encoding="UTF-8" standalone="no"?><!DOCTYPE svg PUBLIC "-//W3C//DTD SVG 1.1//EN" "http://www.w3.org/Graphics/SVG/1.1/DTD/svg11.dtd"><svg width="100%" height="100%" viewBox="0 0 75 84" version="1.1" xmlns="http://www.w3.org/2000/svg" xmlns:xlink="http://www.w3.org/1999/xlink" xml:space="preserve" xmlns:serif="http://www.serif.com/" style="fill-rule:evenodd;clip-rule:evenodd;stroke-linejoin:round;stroke-miterlimit:2;"><path d="M33.333,72.604l0,-28.542l-25,-14.479l0,28.542l25,14.479Zm8.334,0l25,-14.479l-0,-28.542l-25,14.48l-0,28.541Zm-8.334,9.584l-29.166,-16.771c-1.32,-0.764 -2.344,-1.771 -3.073,-3.021c-0.729,-1.25 -1.094,-2.639 -1.094,-4.167l0,-33.125c0,-1.528 0.365,-2.916 1.094,-4.167c0.729,-1.25 1.753,-2.256 3.073,-3.02l29.166,-16.771c1.32,-0.764 2.709,-1.146 4.167,-1.146c1.458,0 2.847,0.382 4.167,1.146l29.166,16.771c1.32,0.764 2.344,1.77 3.073,3.02c0.729,1.251 1.094,2.639 1.094,4.167l0,33.125c0,1.528 -0.365,2.917 -1.094,4.167c-0.729,1.25 -1.753,2.257 -3.073,3.021l-29.166,16.771c-1.32,0.763 -2.709,1.145 -4.167,1.145c-1.458,0 -2.847,-0.382 -4.167,-1.145Zm20.834,-55.001l8.021,-4.583l-24.688,-14.271l-8.125,4.688l24.792,14.166Zm-16.667,9.688l8.125,-4.688l-24.687,-14.27l-8.125,4.687l24.687,14.271Z" style="fill-rule:nonzero;"/></svg>