<svg width="32" height="33" viewBox="0 0 32 33" fill="none" xmlns="http://www.w3.org/2000/svg">
<ellipse cx="4" cy="4" rx="4" ry="4" transform="matrix(-1 0 0 1 20.0001 12.7066)" stroke="white" stroke-width="1.5"/>
<path d="M22.0002 7.28997L21.6252 7.93949L22.0002 7.28997ZM22.0002 26.1228L22.3752 26.7724H22.3752L22.0002 26.1228ZM10 26.1228L10.375 25.4733L10 26.1228ZM10 7.28997L10.375 7.93949H10.375L10 7.28997ZM11.9646 4.358L11.2214 4.2577L11.9646 4.358ZM3.525 13.3599L3.11354 13.987L3.525 13.3599ZM6.72255 25.7964L6.4833 25.0855L6.72255 25.7964ZM6.11832 25.6583L5.56263 26.1619L6.11832 25.6583ZM12.3567 29.5361L12.1522 30.2577L12.3567 29.5361ZM11.9647 29.0552L12.708 28.955L11.9647 29.0552ZM20.0355 29.0552L19.2922 28.955L20.0355 29.0552ZM19.6434 29.5361L19.4389 28.8145L19.6434 29.5361ZM25.2776 25.7964L25.0384 26.5072L25.2776 25.7964ZM28.7284 12.7238L29.4442 12.5L28.7284 12.7238ZM28.4752 13.3599L28.0637 12.7329L28.4752 13.3599ZM3.525 20.0534L3.93646 20.6804L3.525 20.0534ZM25.2773 7.61655L25.0381 6.90572L25.2773 7.61655ZM25.8815 7.75467L25.3258 8.25838L25.8815 7.75467ZM6.11865 7.75466L5.56298 7.25095L6.11865 7.75466ZM6.72283 7.61655L6.96202 6.90571L6.72283 7.61655ZM28.4752 20.0534L28.8866 19.4263L28.4752 20.0534ZM28.7284 20.6895L28.0125 20.4657L28.7284 20.6895ZM20.0355 4.35801L19.2923 4.45831L20.0355 4.35801ZM19.6435 3.87721L19.848 3.15563L19.6435 3.87721ZM19.2923 4.45831C19.482 5.86447 20.299 7.17384 21.6252 7.93949L22.3752 6.64045C21.4684 6.11694 20.9091 5.22325 20.7788 4.25771L19.2923 4.45831ZM21.6252 7.93949C22.8547 8.64934 24.2707 8.7466 25.5165 8.32739L25.0381 6.90572C24.1831 7.19344 23.2162 7.12605 22.3752 6.64045L21.6252 7.93949ZM29.4442 12.5C28.8278 10.5281 27.7901 8.74341 26.4372 7.25095L25.3258 8.25838C26.5356 9.59299 27.4624 11.1876 28.0125 12.9475L29.4442 12.5ZM27.4167 16.7066C27.4167 15.5699 27.9998 14.5689 28.8866 13.987L28.0637 12.7329C26.7722 13.5803 25.9167 15.0434 25.9167 16.7066H27.4167ZM28.8866 19.4263C27.9998 18.8444 27.4167 17.8434 27.4167 16.7066H25.9167C25.9167 18.3699 26.7722 19.833 28.0637 20.6804L28.8866 19.4263ZM26.4375 26.1619C27.7903 24.6696 28.8279 22.885 29.4442 20.9133L28.0125 20.4657C27.4624 22.2255 26.5358 23.82 25.3261 25.1546L26.4375 26.1619ZM22.3752 26.7724C23.2163 26.2867 24.1832 26.2194 25.0384 26.5072L25.5169 25.0855C24.2709 24.6662 22.8548 24.7634 21.6252 25.4733L22.3752 26.7724ZM20.7787 29.1554C20.909 28.1898 21.4683 27.2959 22.3752 26.7724L21.6252 25.4733C20.2989 26.2391 19.4818 27.5486 19.2922 28.955L20.7787 29.1554ZM16.0001 30.79C17.3331 30.79 18.6241 30.6046 19.848 30.2577L19.4389 28.8145C18.3468 29.1241 17.1934 29.29 16.0001 29.29V30.79ZM12.1522 30.2577C13.3761 30.6046 14.6671 30.79 16.0001 30.79V29.29C14.8067 29.29 13.6534 29.1241 12.5612 28.8145L12.1522 30.2577ZM9.62501 26.7724C10.5319 27.2959 11.0912 28.1898 11.2214 29.1555L12.708 28.955C12.5184 27.5487 11.7013 26.2391 10.375 25.4733L9.62501 26.7724ZM6.9618 26.5072C7.81692 26.2194 8.78385 26.2867 9.62501 26.7724L10.375 25.4733C9.14539 24.7634 7.72921 24.6662 6.4833 25.0855L6.9618 26.5072ZM2.55593 20.9133C3.17227 22.885 4.2099 24.6696 5.56263 26.1619L6.67401 25.1546C5.46436 23.82 4.53771 22.2255 3.98761 20.4657L2.55593 20.9133ZM4.58341 16.7066C4.58341 17.8434 4.00039 18.8444 3.11354 19.4263L3.93646 20.6804C5.22792 19.833 6.08341 18.3699 6.08341 16.7066H4.58341ZM3.11354 13.987C4.00039 14.5689 4.58341 15.5699 4.58341 16.7066H6.08341C6.08341 15.0434 5.22792 13.5803 3.93646 12.7329L3.11354 13.987ZM5.56298 7.25095C4.21008 8.7434 3.17232 10.5281 2.55593 12.5L3.98761 12.9475C4.53776 11.1876 5.46452 9.59298 6.67433 8.25837L5.56298 7.25095ZM9.625 6.64045C8.78392 7.12605 7.81709 7.19344 6.96202 6.90571L6.48363 8.32738C7.72947 8.7466 9.1455 8.64935 10.375 7.93949L9.625 6.64045ZM11.2214 4.2577C11.0911 5.22325 10.5318 6.11694 9.625 6.64045L10.375 7.93949C11.7012 7.17384 12.5182 5.86447 12.7079 4.4583L11.2214 4.2577ZM16.0001 2.62331C14.667 2.62331 13.3761 2.80872 12.1521 3.15562L12.5612 4.59878C13.6533 4.28922 14.8067 4.12331 16.0001 4.12331V2.62331ZM19.848 3.15563C18.6241 2.80872 17.3331 2.62331 16.0001 2.62331V4.12331C17.1934 4.12331 18.3468 4.28922 19.439 4.59878L19.848 3.15563ZM12.7079 4.4583C12.7057 4.47458 12.6987 4.49749 12.6783 4.52322C12.6562 4.55099 12.6169 4.58299 12.5612 4.59878L12.1521 3.15562C11.6 3.31211 11.2842 3.79221 11.2214 4.2577L12.7079 4.4583ZM3.93646 12.7329C3.9515 12.7427 3.96981 12.7604 3.98325 12.7928C3.99808 12.8285 4.00705 12.8854 3.98761 12.9475L2.55593 12.5C2.3623 13.1195 2.67576 13.6997 3.11354 13.987L3.93646 12.7329ZM6.4833 25.0855C6.49892 25.0803 6.5226 25.0765 6.55467 25.0834C6.58927 25.0908 6.63525 25.1118 6.67401 25.1546L5.56263 26.1619C5.9474 26.5864 6.51687 26.6569 6.9618 26.5072L6.4833 25.0855ZM12.5612 28.8145C12.617 28.8303 12.6563 28.8623 12.6783 28.8901C12.6987 28.9158 12.7058 28.9387 12.708 28.955L11.2214 29.1555C11.2842 29.621 11.6 30.1012 12.1522 30.2577L12.5612 28.8145ZM19.2922 28.955C19.2944 28.9387 19.3014 28.9158 19.3218 28.8901C19.3439 28.8623 19.3832 28.8303 19.4389 28.8145L19.848 30.2577C20.4001 30.1012 20.716 29.621 20.7787 29.1554L19.2922 28.955ZM25.3261 25.1546C25.3649 25.1118 25.4109 25.0908 25.4455 25.0833C25.4776 25.0765 25.5012 25.0803 25.5169 25.0855L25.0384 26.5072C25.4833 26.6569 26.0528 26.5864 26.4375 26.1619L25.3261 25.1546ZM28.0125 12.9475C27.9931 12.8854 28.0021 12.8285 28.0169 12.7928C28.0303 12.7604 28.0486 12.7427 28.0637 12.7329L28.8866 13.987C29.3244 13.6997 29.6378 13.1195 29.4442 12.5L28.0125 12.9475ZM3.98761 20.4657C4.00705 20.5279 3.99808 20.5848 3.98325 20.6205C3.96981 20.6529 3.9515 20.6705 3.93646 20.6804L3.11354 19.4263C2.67576 19.7136 2.3623 20.2938 2.55593 20.9133L3.98761 20.4657ZM25.5165 8.32739C25.5009 8.33264 25.4772 8.33646 25.4452 8.32957C25.4106 8.32214 25.3646 8.30113 25.3258 8.25838L26.4372 7.25095C26.0524 6.82652 25.483 6.75601 25.0381 6.90572L25.5165 8.32739ZM6.67433 8.25837C6.63557 8.30113 6.58959 8.32213 6.55499 8.32957C6.52293 8.33646 6.49925 8.33263 6.48363 8.32738L6.96202 6.90571C6.51713 6.756 5.94773 6.82651 5.56298 7.25095L6.67433 8.25837ZM28.0637 20.6804C28.0486 20.6705 28.0303 20.6529 28.0169 20.6205C28.0021 20.5848 27.9931 20.5279 28.0125 20.4657L29.4442 20.9133C29.6378 20.2938 29.3244 19.7136 28.8866 19.4263L28.0637 20.6804ZM20.7788 4.25771C20.716 3.79221 20.4001 3.31212 19.848 3.15563L19.439 4.59878C19.3833 4.58299 19.344 4.55099 19.3219 4.52322C19.3015 4.4975 19.2945 4.47458 19.2923 4.45831L20.7788 4.25771Z" fill="white"/>
</svg>
