<svg width="32" height="33" viewBox="0 0 32 33" fill="none" xmlns="http://www.w3.org/2000/svg">
<path d="M20 23.3734V24.7067C20 26.9159 18.2092 28.7067 16 28.7067C13.7909 28.7067 12 26.9159 12 24.7067V23.3734M20 23.3734H12M20 23.3734H24.7874C25.2974 23.3734 25.5536 23.3734 25.7601 23.3037C26.1546 23.1707 26.4633 22.8609 26.5964 22.4664C26.6663 22.2591 26.6663 22.0021 26.6663 21.488C26.6663 21.263 26.666 21.1506 26.6484 21.0433C26.6152 20.8406 26.5365 20.6485 26.4168 20.4817C26.3535 20.3935 26.273 20.3131 26.1144 20.1545L25.5951 19.6351C25.4275 19.4675 25.3333 19.2402 25.3333 19.0033V14.0401C25.3333 8.88539 21.1547 4.70671 16 4.70673C10.8454 4.70674 6.66668 8.88541 6.66668 14.0401V19.0033C6.66668 19.2403 6.57234 19.4675 6.40476 19.6351L5.88543 20.1544C5.72635 20.3135 5.64673 20.3934 5.58334 20.4817C5.46355 20.6486 5.3842 20.8406 5.35094 21.0433C5.33334 21.1506 5.33334 21.263 5.33334 21.488C5.33334 22.0021 5.33334 22.259 5.40328 22.4664C5.53634 22.8609 5.84641 23.1707 6.2409 23.3037C6.44742 23.3734 6.7027 23.3734 7.21275 23.3734H12" stroke="white" stroke-width="1.5" stroke-linecap="round" stroke-linejoin="round"/>
</svg>
