<svg width="661" height="663" viewBox="0 0 661 663" fill="none" xmlns="http://www.w3.org/2000/svg">
<path d="M567.87 103.251C694.157 234.281 690.154 443.03 558.928 569.505C427.703 695.979 218.949 692.286 92.6621 561.256C-33.6245 430.226 -29.621 221.477 101.604 95.0026C232.829 -31.472 441.584 -27.7789 567.87 103.251Z" fill="url(#paint0_radial_113_6)"/>
<mask id="mask0_113_6" style="mask-type:alpha" maskUnits="userSpaceOnUse" x="0" y="2" width="660" height="661">
<path d="M660 332.615C660 514.869 512.254 662.615 330 662.615C147.746 662.615 0 514.869 0 332.615C0 150.361 147.746 2.61499 330 2.61499C512.254 2.61499 660 150.361 660 332.615Z" fill="#D9D9D9"/>
</mask>
<g mask="url(#mask0_113_6)">
<path d="M3.05176e-05 365.615H660V541.615H3.05176e-05V365.615Z" fill="#F4F3FB"/>
<path d="M149.778 469.598C66.4908 417.13 30.4665 430.178 -9.5 443.5L74.5 556L132.5 604L211 647L329.5 670.5L432.5 653L512.25 612.75L574.5 566.5C647 428.5 632.748 591.085 506.681 510.29C445.451 471.049 343.984 478.52 318.522 490.489C283.102 504.332 233.065 522.065 149.778 469.598Z" fill="#FFE2B7"/>
</g>
<path fill-rule="evenodd" clip-rule="evenodd" d="M336.611 389.615C336.611 387.406 338.402 385.615 340.611 385.615H569.611C571.82 385.615 573.611 387.406 573.611 389.615C573.611 391.824 571.82 393.615 569.611 393.615H340.611C338.402 393.615 336.611 391.824 336.611 389.615Z" fill="white"/>
<path fill-rule="evenodd" clip-rule="evenodd" d="M381.611 409.615C381.611 407.406 383.402 405.615 385.611 405.615H548.611C550.82 405.615 552.611 407.406 552.611 409.615C552.611 411.824 550.82 413.615 548.611 413.615H385.611C383.402 413.615 381.611 411.824 381.611 409.615Z" fill="white"/>
<path fill-rule="evenodd" clip-rule="evenodd" d="M433.611 429.615C433.611 427.406 435.402 425.615 437.611 425.615L552.611 425.615C554.82 425.615 556.611 427.406 556.611 429.615C556.611 431.824 554.82 433.615 552.611 433.615L437.611 433.615C435.402 433.615 433.611 431.824 433.611 429.615Z" fill="white"/>
<path fill-rule="evenodd" clip-rule="evenodd" d="M393.611 449.615C393.611 447.406 395.402 445.615 397.611 445.615L507.611 445.615C509.82 445.615 511.611 447.406 511.611 449.615C511.611 451.824 509.82 453.615 507.611 453.615L397.611 453.615C395.402 453.615 393.611 451.824 393.611 449.615Z" fill="white"/>
<mask id="mask1_113_6" style="mask-type:alpha" maskUnits="userSpaceOnUse" x="313" y="225" width="281" height="141">
<path d="M593.611 225.615L593.611 365.615L313.611 365.615L313.611 225.615L593.611 225.615Z" fill="#D9D9D9"/>
</mask>
<g mask="url(#mask1_113_6)">
<path d="M313.611 365.615C313.611 288.295 376.291 225.615 453.611 225.615C530.931 225.615 593.611 288.295 593.611 365.615C593.611 442.935 530.931 505.615 453.611 505.615C376.291 505.615 313.611 442.935 313.611 365.615Z" fill="#FFAB2E"/>
</g>
<path d="M265.702 129.037C194.778 258.865 184.534 473.205 188.277 564.147C188.277 584.115 228.616 591.615 228.111 559.115C224.329 315.454 259.397 174.704 279.295 138.445C291.879 115.514 273.732 114.338 265.702 129.037Z" fill="#FF9900"/>
<path d="M385.656 77.8391C349.114 69.9145 287.234 84.992 263.593 94.046L273.686 129.97C273.264 122.337 284.926 110.378 314.95 133.364C344.975 156.35 345.752 138.147 347.387 123.734C347.387 123.734 369.702 131.418 410.597 172.126C421.265 182.745 428.158 157.372 428.158 157.372C428.158 157.372 443.946 230.874 456.955 213.882C473.59 192.154 468.836 169.716 468.836 169.716C468.836 169.716 494.732 217.739 499.392 199.375C499.392 199.375 502.844 185.912 496.273 162.525C489.544 138.575 431.334 87.7447 385.656 77.8391Z" fill="#93A897"/>
<path d="M238.466 3.9429C238.466 3.9429 208.704 -4.38724 193.712 6.82781C178.543 18.1758 208.699 3.98996 226.695 14.3803L213.678 26.9748C213.678 26.9748 194.777 44.7874 242.931 40.9892C251.96 40.277 256.767 51.8519 256.767 51.8519C256.767 51.8519 234.608 62.0388 240.353 65.3557C248.252 69.9165 264.78 81.7567 267.694 92.6311C270.607 103.506 252.93 128.153 243.727 139.118L254.832 139.784L277.954 144.516L285.506 111.533C281.612 108.327 278.599 96.6293 297.701 75.4851C316.803 54.3409 304.809 49.9059 298.123 49.8761C289.528 49.8378 281.283 48.1966 285.53 36.8603C290.839 22.6899 270.835 7.17493 272.36 14.8922C277.49 40.8357 263.386 20.486 257.856 15.1376C250.483 8.00635 238.466 3.9429 238.466 3.9429Z" fill="#93A897"/>
<path d="M58.6839 271.608C95.7793 117.799 216.51 99.4115 271.067 112.717C271.067 112.717 284.329 114.623 303.717 125.822C439.443 204.227 353.286 358.393 340.603 365.433C327.921 372.474 348.668 286.785 348.668 286.785C348.668 286.785 339.05 298.468 321.725 308.573C304.401 318.679 333.01 273.778 339.228 258.355C345.858 241.912 343.383 226.282 343.383 226.282C343.383 226.282 287.703 291.803 308.823 226.437C329.942 161.071 310.668 158.561 310.668 158.561C310.668 158.561 298.717 209.112 289.766 209.69C280.815 210.267 278.929 148.854 278.929 148.854C278.929 148.854 259.027 183.325 253.808 177.439C248.588 171.553 247.767 148.098 247.767 148.098C247.767 148.098 225.838 178.526 217.337 190.854C208.837 203.181 199.102 197.561 197.281 190.764C195.46 183.967 194.639 160.513 194.639 160.513C160.567 189.675 145.901 235.786 139.088 231.853C128.316 225.634 129.649 203.423 129.649 203.423C129.649 203.423 49.261 310.678 58.6839 271.608Z" fill="#93A897"/>
<path d="M257.92 83.9894C126.25 -4.20444 37.3601 69.6362 5.96029 122.364C-5.56798 147.307 41.8531 99.9989 68.3727 103.82C59.7173 130.421 43.2198 181.219 74.991 142.111C106.762 103.003 133.821 96.6022 143.379 98.2905C135.694 114.919 128.497 141.979 161.192 117.192C193.886 92.4058 219.295 96.1605 229.157 98.9815C290.502 135.357 320.065 125.614 257.92 83.9894Z" fill="#93A897"/>
<defs>
<radialGradient id="paint0_radial_113_6" cx="0" cy="0" r="1" gradientUnits="userSpaceOnUse" gradientTransform="translate(404.475 501.455) rotate(-104.178) scale(419.946 818.559)">
<stop stop-color="#4E4A99"/>
<stop offset="0.0001" stop-color="#FF9A03"/>
<stop offset="0.0002" stop-color="#7671D3"/>
<stop offset="1" stop-color="#FBFBFC"/>
</radialGradient>
</defs>
</svg>
