<svg width="24" height="34" viewBox="0 0 24 34" fill="none" xmlns="http://www.w3.org/2000/svg">
<path fill-rule="evenodd" clip-rule="evenodd" d="M0 16.0769C0 13.9771 1.70218 12.275 3.80192 12.275H20.0958C22.1956 12.275 23.8978 13.9771 23.8978 16.0769V30.1983C23.8978 32.298 22.1956 34.0002 20.0958 34.0002H3.80192C1.70218 34.0002 0 32.298 0 30.1983V16.0769ZM3.80192 15.5337C3.50195 15.5337 3.25879 15.7769 3.25879 16.0769V30.1983C3.25879 30.4982 3.50195 30.7414 3.80192 30.7414H20.0958C20.3958 30.7414 20.639 30.4982 20.639 30.1983V16.0769C20.639 15.7769 20.3958 15.5337 20.0958 15.5337H3.80192Z" fill="#808080"/>
<path fill-rule="evenodd" clip-rule="evenodd" d="M12.1078 22.5185C12.9867 22.5185 13.6993 21.806 13.6993 20.927C13.6993 20.0481 12.9867 19.3355 12.1078 19.3355C11.2288 19.3355 10.5163 20.0481 10.5163 20.927C10.5163 21.806 11.2288 22.5185 12.1078 22.5185ZM12.1078 24.691C14.1866 24.691 15.8718 23.0058 15.8718 20.927C15.8718 18.8482 14.1866 17.163 12.1078 17.163C10.029 17.163 8.34375 18.8482 8.34375 20.927C8.34375 23.0058 10.029 24.691 12.1078 24.691Z" fill="#808080"/>
<path fill-rule="evenodd" clip-rule="evenodd" d="M12.1208 23.5625C12.7207 23.5625 13.207 24.0488 13.207 24.6487L13.207 27.5845C13.207 28.1844 12.7207 28.6708 12.1208 28.6708C11.5208 28.6708 11.0345 28.1844 11.0345 27.5845L11.0345 24.6487C11.0345 24.0488 11.5208 23.5625 12.1208 23.5625Z" fill="#808080"/>
<mask id="mask0_1_19179" style="mask-type:alpha" maskUnits="userSpaceOnUse" x="1" y="0" width="22" height="14">
<path d="M1.73828 12.0747C1.73828 13.0851 2.71095 13.9042 3.91081 13.9042H20.2047C21.4046 13.9042 22.3773 13.0851 22.3773 12.0747V1.82949C22.3773 0.819091 21.4046 -1.90735e-06 20.2047 -1.90735e-06H3.91081C2.71095 -1.90735e-06 1.73828 0.819091 1.73828 1.82949V12.0747Z" fill="#D9D9D9"/>
</mask>
<g mask="url(#mask0_1_19179)">
<path fill-rule="evenodd" clip-rule="evenodd" d="M16.7148 14.9137V7.97716C16.7148 5.37134 14.6024 3.25891 11.9966 3.25891C9.39075 3.25891 7.27832 5.37134 7.27832 7.97717V14.9137C7.27832 17.5195 9.39075 19.632 11.9966 19.632C14.6024 19.632 16.7148 17.5195 16.7148 14.9137ZM11.9966 0.00012207C7.59098 0.00012207 4.01953 3.57157 4.01953 7.97717V14.9137C4.01953 19.3193 7.59098 22.8908 11.9966 22.8908C16.4022 22.8908 19.9736 19.3193 19.9736 14.9137V7.97716C19.9736 3.57157 16.4022 0.00012207 11.9966 0.00012207Z" fill="#808080"/>
</g>
</svg>
