<svg width="32" height="33" viewBox="0 0 32 33" fill="none" xmlns="http://www.w3.org/2000/svg">
<path d="M12.1953 12.8049C12.423 12.1032 12.8402 11.4787 13.401 10.9994C13.9619 10.5201 14.6451 10.2051 15.3737 10.0895C16.1023 9.97389 16.8483 10.0619 17.5299 10.3441C18.2116 10.6263 18.8019 11.0917 19.2357 11.6885C19.6694 12.2853 19.9292 12.9901 19.9872 13.7256C20.0451 14.4611 19.8985 15.1984 19.5636 15.8558C19.2287 16.5132 18.7192 17.0647 18.0901 17.4502C17.4611 17.8357 16.7378 18.0397 16 18.0397V19.3737M16 28.7067C9.37258 28.7067 4 23.3341 4 16.7067C4 10.0793 9.37258 4.70673 16 4.70673C22.6274 4.70673 28 10.0793 28 16.7067C28 23.3341 22.6274 28.7067 16 28.7067ZM16.0664 23.3734V23.5067L15.9336 23.507V23.3734H16.0664Z" stroke="white" stroke-width="1.5" stroke-linecap="round" stroke-linejoin="round"/>
</svg>
